<svg id="Layer_1" data-name="Layer 1" xmlns="http://www.w3.org/2000/svg" viewBox="0 0 214.97 91.19"><title>The-Fearless-Logo-Flat-Vector-official</title><path d="M394.69,410.7c.44.08.8.18,1.17.22a1.58,1.58,0,0,0,1.88-1.05,1.74,1.74,0,0,0-.66-2.16,3.44,3.44,0,0,0-4.76.93,4,4,0,0,0,.24,5,10.21,10.21,0,0,0,2,1.73,32.81,32.81,0,0,0,3.67,2.14,8,8,0,0,1,4.35,5.72,10.36,10.36,0,0,1-.5,6.75,8.43,8.43,0,0,1-7,5.11,26.12,26.12,0,0,1-3.44,0,.78.78,0,0,0-.15.13A13.91,13.91,0,0,1,380,439.89c-2.67-.16-5.33-.46-8-.62a62.44,62.44,0,0,0-22.33,3.09,136.38,136.38,0,0,0-17.29,6.81c-6.11,2.84-12,6.13-17.94,9.27A195.12,195.12,0,0,1,296.33,467a74.59,74.59,0,0,1-13.12,4.14,21.94,21.94,0,0,1-7,.46,11.67,11.67,0,0,1-2.73-.71,4.61,4.61,0,0,1-2.89-3.26c-.05-.18-.12-.35-.19-.54-1.31,0-2.6,0-3.89,0a21.67,21.67,0,0,1-7.3-1.33,15.83,15.83,0,0,1-1.46-.65c-3.25-1.6-4.7-4.35-4.9-7.83a5.21,5.21,0,0,1,3.57-5.42,7,7,0,0,1,3.24-.48,1.87,1.87,0,0,1,1.52.76l-.69.25a2.54,2.54,0,0,0-1.45,4,6,6,0,0,0,2.56,2.3,17.53,17.53,0,0,0,5.61,1.57,43.7,43.7,0,0,0,12.61-.46,95.05,95.05,0,0,0,23.56-7.57c3.41-1.55,6.76-3.23,10.09-4.94a174.32,174.32,0,0,1,21.42-9.41,94.81,94.81,0,0,1,18.09-4.58,60.25,60.25,0,0,1,20.66.59c2.62.53,5.24,1.08,7.88,1.51a10.2,10.2,0,0,0,6.54-.84c.32-.17.63-.38,1-.6l-.89-.73a6,6,0,0,1-2.25-5.43,3.69,3.69,0,0,1,2.44-3.3,3.62,3.62,0,0,1,4.07,1,5.39,5.39,0,0,1,1.33,5.58c-.08.27-.17.54-.26.81a1.87,1.87,0,0,0,0,.2,3.38,3.38,0,0,0,2.71-.93,4.9,4.9,0,0,0,1.51-4.37,4,4,0,0,0-1.62-2.89c-1.51-1.07-3.08-2.07-4.64-3.08a.9.9,0,0,0-.61-.06,3.06,3.06,0,0,0-1.87,1.2c-.17.22-.31.46-.47.71a3.12,3.12,0,0,1,1.32-4.6c-.5-.2-.5-.2-1.42,0a5.44,5.44,0,0,1-1.51-3,8.49,8.49,0,0,1,2.44-7.87,7.82,7.82,0,0,1,8.58-1.52,4.08,4.08,0,0,1,2.52,4.24,3.34,3.34,0,0,1-4.44,2.81A1.81,1.81,0,0,1,394.69,410.7Zm-116,55.09V466c1.16-.12,2.32-.2,3.46-.37a64.41,64.41,0,0,0,12.26-3.39,185.44,185.44,0,0,0,21-9.45c5.38-2.77,10.79-5.44,16.38-7.77,8.48-3.53,17.14-6.42,26.31-7.55a62.65,62.65,0,0,1,13.2-.19c2.23.2,4.45.43,6.68.61.89.06,1.79,0,2.68,0-2.8-.59-5.61-1.08-8.43-1.53a59.06,59.06,0,0,0-16.1-.27,81.06,81.06,0,0,0-14.37,3.1,143,143,0,0,0-24.16,10.16c-4.89,2.53-9.75,5.13-14.69,7.56a118.32,118.32,0,0,1-17.6,7C283.08,464.61,280.86,465.18,278.66,465.79Zm113.06-34.26a13.25,13.25,0,0,0,.7-1.65,2.62,2.62,0,0,0-1.16-3,1.39,1.39,0,0,0-2.17,1.24,3,3,0,0,0,.13.93A4.4,4.4,0,0,0,391.72,431.53Z" transform="translate(-187.94 -380.49)"/><path d="M294.4,394.41a1.52,1.52,0,0,1-1.35-.64,3.11,3.11,0,0,1-.6-3.34,5.64,5.64,0,0,1,3.33-3.52c4.33-1.81,11.05.72,11.88,6.69a11.89,11.89,0,0,1-3.31,10.14,14,14,0,0,1-7.4,3.92,27.13,27.13,0,0,1-9.21.29,60,60,0,0,1-13.12-3.38,141.08,141.08,0,0,0-17.18-5.1,53.11,53.11,0,0,0-12-1.43,22.63,22.63,0,0,0-6.87,1.09,12.52,12.52,0,0,0-8.34,11.2,10.73,10.73,0,0,0,2.46,7.35,17.41,17.41,0,0,0,1.82,1.68,2.55,2.55,0,0,1-1.61.17c-5.31-.78-10.18-4-11.36-10.4a16.12,16.12,0,0,1,2.17-11.26,20.52,20.52,0,0,1,11.83-9.29A30.32,30.32,0,0,1,247,387.37a79.15,79.15,0,0,1,22.81,5.28c4.57,1.7,9.08,3.55,13.63,5.31a49,49,0,0,0,7.83,2.45,11.71,11.71,0,0,0,5.33.11,9.38,9.38,0,0,0,4.61-2.65,5.47,5.47,0,0,0,1.44-5.65,4.05,4.05,0,0,0-3.42-3.14,4.78,4.78,0,0,0-4.12,1.46,2.82,2.82,0,0,0-.75,2.08Zm-26,3.62.05-.1a3.23,3.23,0,0,0-.42-.2A103.62,103.62,0,0,0,251.74,393a38.5,38.5,0,0,0-12.39-.63,16.39,16.39,0,0,0-8,3.15,15.94,15.94,0,0,0-5,7.07,13.27,13.27,0,0,0-.91,7.49,10,10,0,0,0,3.36,5.81,9,9,0,0,0-.57-.94,10.31,10.31,0,0,1-1.44-7.51,17.74,17.74,0,0,1,3.88-8.59,14.18,14.18,0,0,1,8.27-4.58A35.27,35.27,0,0,1,250.4,394,81.43,81.43,0,0,1,263,396.49C264.79,397,266.6,397.52,268.4,398Z" transform="translate(-187.94 -380.49)"/><path d="M246.88,426.7c.4-.15.63-.22.85-.32a17.09,17.09,0,0,1,8.28-1.5,8.93,8.93,0,0,1,6.52,2.95,9.27,9.27,0,0,1,2.16,5.14,10.83,10.83,0,0,1-1.08,6.33,7,7,0,0,1-2.6,2.93c-.31.18-.66.31-1,.48a1.6,1.6,0,0,1,.18-1.54,4,4,0,0,0,.12-3.2,8.53,8.53,0,0,0-4.07-5,11.36,11.36,0,0,0-8.85-1.08L247,432l-.26.15c0,.28,0,.61,0,1,0,4.88.08,9.76.48,14.63a59,59,0,0,0,1.27,9.06,11.22,11.22,0,0,0,1.76,4.34,14.6,14.6,0,0,0-7.12,10.27c-1.26-4.42-3.4-8.13-7.64-10.27,1.53-2.16,2-4.62,2.41-7.06a94.31,94.31,0,0,0,1.22-13.63,2.65,2.65,0,0,0-.12-.93,17.08,17.08,0,0,0-2.64-5.08,8.13,8.13,0,0,0-4.85-3.22,9,9,0,0,0-4.39.33l-.45.13s0,0-.15-.07a6.2,6.2,0,0,1,.49-.52,15.76,15.76,0,0,1,4.54-3,7.36,7.36,0,0,1,7.13.47l.33.17s.06,0,.17,0a2.61,2.61,0,0,0,0-.31,73.7,73.7,0,0,0-1.84-15.44,19.49,19.49,0,0,0-1.9-5c.73-.13,1.36-.23,2-.36a17.9,17.9,0,0,0,8.22-4.23c1.31-1.13,2.55-2.34,3.81-3.53.18-.16.28-.41.55-.54A244,244,0,0,0,246.88,426.7Zm-.51-19C244.78,411.88,243,422.36,243,432a96,96,0,0,0,2.84,23.69A172.31,172.31,0,0,1,246.37,407.73Zm16.4,30.62a12.72,12.72,0,0,0,.52-5.82,6.68,6.68,0,0,0-3.21-4.86,10.08,10.08,0,0,0-6.11-1.55c-.77.05-1.53.19-2.3.29.05.14.08.16.11.16l1.13,0a12.37,12.37,0,0,1,7,2.05,6.27,6.27,0,0,1,2.84,4.46A21.75,21.75,0,0,1,262.77,438.35Z" transform="translate(-187.94 -380.49)"/><path d="M310.55,400.51c.18-.35.22-.55.34-.65a3.82,3.82,0,0,1,2.07-1.08c8.07-.89,15.7-3.45,23.3-6.16,6.25-2.23,12.48-4.52,18.74-6.72a109.56,109.56,0,0,1,15.91-4.38,51.72,51.72,0,0,1,10.89-1A30,30,0,0,1,393,382.74a19.48,19.48,0,0,1,5.45,3.35c.16.14.34.26.54.41a9.62,9.62,0,0,0,2.05-5.42c1.13.74,2.08,4,1.79,6.15s-1.2,3.62-3.32,5.62a4.18,4.18,0,0,0,2.93-.5,8.61,8.61,0,0,1-1.5,7.93,8.22,8.22,0,0,1-8.76,2.79c-2.91-.67-5.83-3.7-6.28-6.43.24.18.42.33.61.46.73.54,1.44,1.11,2.21,1.6a5.61,5.61,0,0,0,1.48.6,3.05,3.05,0,0,0,3.82-1.94,6.28,6.28,0,0,0,.24-3.71,10,10,0,0,0-5.84-7.09,17.07,17.07,0,0,0-6-1.56,40.53,40.53,0,0,0-11,.68A161,161,0,0,0,351.29,391c-6.32,1.94-12.62,3.92-19,5.81A92.12,92.12,0,0,1,319,399.82c-2.43.35-4.89.47-7.33.69C311.38,400.53,311.07,400.51,310.55,400.51Z" transform="translate(-187.94 -380.49)"/><path d="M316,440a37.79,37.79,0,0,0-2.28,3.38,33.27,33.27,0,0,0-1.48,3.54c-.42-.7-.84-1.53-1.38-2.29a4.65,4.65,0,0,0-2.43-1.4c1.27-2.92,1.42-6,1.67-9.06.08-.91.09-1.82.13-2.74a2.54,2.54,0,0,0-3.39-2.58l-.48.18c1-1.81,2.51-2.47,4.73-2.13-.14-.15-.22-.31-.35-.37a1,1,0,0,1-.49-.93,30.21,30.21,0,0,0-1.32-7.61,18.89,18.89,0,0,0-2.79-5.52l9.43-3.94v1.33l.59-.61a7.06,7.06,0,0,1,3.69-2.33,3.51,3.51,0,0,1,4.43,2.51,9.94,9.94,0,0,1,.11,5.22,18.55,18.55,0,0,1-4.05,8.21l-.79.93,1-.15c1.42-.19,2.19.37,2.29,1.81s.06,3,.13,4.43a13,13,0,0,0,.31,2.24c.21.85.61,1.17,1.18,1.09a1.52,1.52,0,0,0,1.32-1.4,6.91,6.91,0,0,0-.05-1c.42,0,.55.23.63.53a4.59,4.59,0,0,1-3.82,5.63,2.29,2.29,0,0,1-2.55-1.37,6.34,6.34,0,0,1-.58-2.26c-.06-1.38.05-2.76.1-4.14,0-.44.09-.88.11-1.32.07-1.94-1.61-2.27-2.78-1.74a19.93,19.93,0,0,0-2.42,1.46.76.76,0,0,0-.28.54,49.72,49.72,0,0,0,.85,9.66A4.43,4.43,0,0,0,316,440Zm-1.83-13.09c.38-.23.68-.38,1-.58,4.1-3.08,5.55-7.29,5.09-12.26a6,6,0,0,0-.63-2,2.48,2.48,0,0,0-4.52.95c-.31,3.57-.62,7.14-.88,10.71C314.08,424.65,314.15,425.67,314.15,426.86Z" transform="translate(-187.94 -380.49)"/><path d="M298.89,435.46l-1.41,1.34c-.45.43-.91.85-1.43,1.33l-2.27-1.55c-.08.14-.16.21-.17.28a21.53,21.53,0,0,0,.05,7.51,7.32,7.32,0,0,0,.46,1.44c.42.94.79,1.25,2.18,1.89l-10.14,4-.09-.13c.14-.18.28-.36.43-.53a11.26,11.26,0,0,0,2.42-4.86c.64-2.69,1.15-5.41,1.71-8.12.18-.89.32-1.79.49-2.76a5,5,0,0,0-3.51-.28,3.31,3.31,0,0,0-2,3.75,1.56,1.56,0,0,0,1.53,1.29H288a2.43,2.43,0,0,1-2.89,1.19,3.55,3.55,0,0,1-2.49-3.86,5.52,5.52,0,0,1,6.57-4.82c1,.17,1.93.5,3.06.8-.73-.62-.53-1.29-.41-1.95.81-4.58,1.62-9.17,2.4-13.76a1.3,1.3,0,0,1,1-1.18c2.59-.89,5.15-1.86,7.72-2.8l.94-.34c-.4.71-.71,1.27-1,1.82a7.77,7.77,0,0,0-1.2,4.84c.23,2.7.35,5.4.48,8.11a11.76,11.76,0,0,1-.21,1.79l2.41-2.56c-.16,1.7-.62,3.29-.24,4.93l-1.31.5a2,2,0,0,0,0,.48,31.13,31.13,0,0,0,1.74,7,7.52,7.52,0,0,0,2.63,3.57l-9.17,3c1.51-3.75,1.31-7.51,1.18-11.26Zm-2.61.44c.75-.8,1.41-1.55,2.12-2.26a1.29,1.29,0,0,0,.4-1.17,74.26,74.26,0,0,0-1.37-9c-.07-.32-.19-.63-.29-.95A45.6,45.6,0,0,0,294,434.31Z" transform="translate(-187.94 -380.49)"/><path d="M361.12,414.57c-.06-.61-.1-1.08-.16-1.54-.21-1.6-1-2.21-2.58-2a4.93,4.93,0,0,0-4.14,4.79q0,3.17,0,6.33c0,2.13.75,2.89,2.92,2.87,1,0,2.07-.16,3.1-.26a3.24,3.24,0,0,0,2.46-1.57c.38-.57.65-1.22,1-1.81.16-.25.38-.59.62-.63.95-.16,1.92-.22,3-.33a7,7,0,0,1-.15,1.1,18.2,18.2,0,0,1-2.28,4.64,1.18,1.18,0,0,1-1.18.58,63.39,63.39,0,0,0-15.65,1.6l-1,.17c1.49-5.35,1.66-10.72,1.69-16.09s-.11-10.7-1.46-16l3.58-.81a82.28,82.28,0,0,1,11.48-1.67,1.57,1.57,0,0,1,1.56.62,23.08,23.08,0,0,1,2.83,4.88,4.68,4.68,0,0,1,.21.81c-1,.11-1.94.21-2.87.28a.94.94,0,0,1-.48-.22,1,1,0,0,1-.21-.31,4.93,4.93,0,0,0-4.69-2.45,30.19,30.19,0,0,0-3.29.27c-1.05.12-1.23.32-1.24,1.39,0,2.42,0,4.85,0,7.27a7,7,0,0,1-.44,3,8.2,8.2,0,0,0-.35,1.72l.18.07.3-.49a18.57,18.57,0,0,1,1-1.79,5.82,5.82,0,0,1,5.43-2.43,2.69,2.69,0,0,1,2.24,1.52,5.78,5.78,0,0,1-1,6.15A5.21,5.21,0,0,1,361.12,414.57Z" transform="translate(-187.94 -380.49)"/><path d="M378.44,402c.37.1.67.19,1,.25a1.72,1.72,0,0,0,2.16-1,1.88,1.88,0,0,0-.7-2.41,3.7,3.7,0,0,0-4.8.67,4.44,4.44,0,0,0-.09,5.58,11,11,0,0,0,2.25,2,35.16,35.16,0,0,0,4,2.34,8.42,8.42,0,0,1,4.47,5.88,11.36,11.36,0,0,1-.54,7.58,9,9,0,0,1-7.36,5.38,8.85,8.85,0,0,1-7.82-2.43,6.11,6.11,0,0,1-1.88-6.1,3.9,3.9,0,0,1,5.82-2.6,2.9,2.9,0,0,1,1.28,1.52,3.21,3.21,0,0,1-.91-.06,1.88,1.88,0,0,0-2.31.54,2.45,2.45,0,0,0-.55,2.54,2.88,2.88,0,0,0,.42.84,5.46,5.46,0,0,0,5.12,2.41,4.37,4.37,0,0,0,3.58-3.88,5,5,0,0,0-2-5.15c-1.15-.82-2.36-1.56-3.53-2.37s-2.11-1.48-3.13-2.27a1.06,1.06,0,0,0-1-.24,3.59,3.59,0,0,0-2.56,2,3.9,3.9,0,0,1-.11-3.28c.49-1.1,1.54-1.49,2.57-2l-1.4-.21a9,9,0,0,1,2.54-9.49,8.1,8.1,0,0,1,7.92-1.84,4.72,4.72,0,0,1,3.68,3.77,3.64,3.64,0,0,1-4.46,4.28A1.86,1.86,0,0,1,378.44,402Z" transform="translate(-187.94 -380.49)"/><path d="M286,446.15a7,7,0,0,1-.32,1.37c-.69,1.44-1.43,2.86-2.17,4.28a1.35,1.35,0,0,1-1.21.74c-2.95.26-5.89.57-8.83.86l-7.24.7-.54,0c.07-.27.11-.47.18-.66a31.54,31.54,0,0,0,1.54-7.56,86.9,86.9,0,0,0,.37-12.07,42.91,42.91,0,0,0-1.47-10.45c-.19-.62-.41-1.24-.65-2h.8a60.78,60.78,0,0,0,15.11-1.19,1.3,1.3,0,0,1,1.53.58,18.81,18.81,0,0,1,2.3,4.31,5.25,5.25,0,0,1,.18.81l-3.17.32c-.2-.3-.38-.55-.54-.81a4.66,4.66,0,0,0-4-2.26c-1.32,0-2.64.1-4,.2-.82.07-1.08.38-1.11,1.23s0,1.7,0,2.55c0,1.39,0,2.77,0,4.16a11.22,11.22,0,0,1-.45,4.19,1.75,1.75,0,0,0,0,1.11c.16-.32.31-.66.48-1a6.25,6.25,0,0,1,4.75-3.5,3.28,3.28,0,0,1,4.11,3.35,6,6,0,0,1-.81,3.53,2.39,2.39,0,0,1-1.18,1.14c0-.29-.07-.53-.09-.76s0-.7-.11-1a2,2,0,0,0-2.55-1.72,5,5,0,0,0-4.14,4.89v6c0,.28,0,.56,0,.84a2.12,2.12,0,0,0,2.07,2.17,14,14,0,0,0,4.51-.26,3.21,3.21,0,0,0,2.08-1.67c.32-.53.57-1.12.89-1.66.14-.22.36-.51.58-.54C283.81,446.32,284.78,446.26,286,446.15Z" transform="translate(-187.94 -380.49)"/><path d="M345.41,429a133.55,133.55,0,0,0-17.76,6.14c.1-.34.14-.51.2-.67a44.63,44.63,0,0,0,2.47-10.93c.2-1.88.3-3.76.41-5.65.06-.9-.12-1.13-1-1.44a5,5,0,0,0-2.52-.06l-.47.12a4.84,4.84,0,0,1,5.27-2.87,3.72,3.72,0,0,0-.66-.52c-.5-.19-.58-.56-.61-1-.16-2.07-.32-4.14-.55-6.2a7.25,7.25,0,0,0-1.1-3.22l8-3a1.33,1.33,0,0,1,0,.38,37.07,37.07,0,0,0-2.18,8.68,57,57,0,0,0-.59,10.36,23.33,23.33,0,0,0,.93,6,13,13,0,0,0,.92,2.17,9,9,0,0,0,1.11,1.32,6.8,6.8,0,0,0,.69-1,16.52,16.52,0,0,0,1.19-8,14.68,14.68,0,0,0-.73-2.49,31.48,31.48,0,0,1,3.93-1.1c0,.44,0,.78,0,1.12a30,30,0,0,0,.64,7.51A8,8,0,0,0,345.41,429Z" transform="translate(-187.94 -380.49)"/><path d="M197.61,416.47a9.84,9.84,0,0,0-4.29-.84,3.73,3.73,0,0,0-3.46,3,2.3,2.3,0,0,0,1.51,2.63,1.64,1.64,0,0,0,1.84-.32,1.7,1.7,0,0,0,.39-1.92c-.11-.29-.24-.57-.36-.85a1.69,1.69,0,0,1,2.53,1.3,3,3,0,0,1-1.36,3,4.5,4.5,0,0,1-5.34-.46,3.24,3.24,0,0,1-1-1.79,6,6,0,0,1,.75-4.36,4.79,4.79,0,0,1,3.54-2.1,10.82,10.82,0,0,1,3.85.1c2.12.45,4.22,1,6.34,1.47a15.26,15.26,0,0,0,3.09.29,4.87,4.87,0,0,0,3.62-1.58,6.25,6.25,0,0,0,.5-.7,1.18,1.18,0,0,1,.47,1.4,4.67,4.67,0,0,1-3,3.37,8.26,8.26,0,0,1-5.29.05l-1.24-.36v.93q0,8.31,0,16.62a7.21,7.21,0,0,0,.19,1.68,2.35,2.35,0,0,0,1.72,1.94c.1,0,.18.13.36.26a1.59,1.59,0,0,1-1.5-.11,13.06,13.06,0,0,1-1.88-1.25,5,5,0,0,0-2.52-1.32,3.57,3.57,0,0,0,.56-2.3c0-5.55,0-11.09,0-16.63Z" transform="translate(-187.94 -380.49)"/><path d="M214,434.29a14.52,14.52,0,0,1-4.65,0c1-.61.8-1.56.81-2.45,0-.59,0-1.19,0-1.87l-3.74-1.17V432c0,1.37,0,1.37.7,2.3a13.47,13.47,0,0,1-4.43,0c1-.53.84-1.41.84-2.25v-9.26a1.65,1.65,0,0,0-.67-1.65h4a3.6,3.6,0,0,0-.42,1.07c0,1.7,0,3.39,0,5.17l3.7,1.15v-1c0-1.64,0-3.28,0-4.91a1.57,1.57,0,0,0-.53-1.45h4.07a1.67,1.67,0,0,0-.63,1.58q0,5,0,10A1.48,1.48,0,0,0,214,434.29Z" transform="translate(-187.94 -380.49)"/><path d="M230.72,457.84c2.8-5.89,2.81-12.08,2.17-18.46h-1.23c-8.34,0-16.68,0-25,0a1.93,1.93,0,0,1-2-1,4.81,4.81,0,0,0-.49-.67c0-.06,0-.09.05-.12s0-.06.06-.06l29.36,0c.28,0,.55,0,.88,0,.06.37.14.7.16,1a48.76,48.76,0,0,1-.52,11.76,18.29,18.29,0,0,1-2,5.86c-.35.61-.8,1.18-1.2,1.77Z" transform="translate(-187.94 -380.49)"/><path d="M225.4,432.05a5,5,0,0,1-1.28,2.2.87.87,0,0,1-.58.24c-2.8,0-5.59,0-8.39,0-.05,0-.1-.07-.22-.16.87-.53.78-1.39.78-2.22q0-4.2,0-8.4a7.08,7.08,0,0,0,0-1.22,12.28,12.28,0,0,0-.39-1.39h2.06c1.89,0,3.78,0,5.67,0a1.21,1.21,0,0,1,1.11.55,6.5,6.5,0,0,1,1.06,1.92c-.87.12-1.59.21-2.17-.58a2.24,2.24,0,0,0-1.67-.77,17,17,0,0,0-1.88-.1c-.65,0-.77.12-.77.79,0,1.29,0,2.57,0,4a5.64,5.64,0,0,0,.58-.36,3.24,3.24,0,0,1,2-.65,1.81,1.81,0,0,1,1.82,1.1,1.91,1.91,0,0,1-.82,2.25c-.07-.21-.14-.4-.19-.59a1.06,1.06,0,0,0-1.14-.91,2.12,2.12,0,0,0-2.3,2.18c.1.74,0,1.51,0,2.26s.3,1.12,1,1.23a15.71,15.71,0,0,0,2.06.11,1.54,1.54,0,0,0,1.42-.8,1.23,1.23,0,0,1,1.4-.68Z" transform="translate(-187.94 -380.49)"/><path d="M224.53,392.87l-.89,1.08a20.15,20.15,0,0,0-4.23,8.15c-1.21,5.3.15,10,3.37,14.3.17.22.33.45.49.68,0,0,0,.06,0,.15H211.2l.72-1.42h8.31c.15-.45-.17-.69-.32-1a18,18,0,0,1-2.26-9.72,15.9,15.9,0,0,1,2.83-8.09,22,22,0,0,1,3.56-4,3.32,3.32,0,0,1,.36-.26Z" transform="translate(-187.94 -380.49)"/></svg>