<?xml version="1.0" encoding="utf-8"?>
<!-- Generator: Adobe Illustrator 22.1.0, SVG Export Plug-In . SVG Version: 6.00 Build 0)  -->
<svg version="1.1" id="Layer_1" xmlns="http://www.w3.org/2000/svg" xmlns:xlink="http://www.w3.org/1999/xlink" x="0px" y="0px"
	 viewBox="0 0 215 91.2" style="enable-background:new 0 0 215 91.2;" xml:space="preserve">
<style type="text/css">
	.st0{fill:#FFFFFF;}
</style>
<title>The-Fearless-Logo-Flat-Vector-official</title>
<path class="st0" d="M206.8,30.2c0.4,0.1,0.8,0.2,1.2,0.2c0.8,0.2,1.6-0.3,1.9-1c0.3-0.8,0.1-1.7-0.7-2.2c-1.6-1.1-3.7-0.6-4.8,0.9
	c-1.1,1.5-1,3.6,0.2,5c0.6,0.7,1.3,1.2,2,1.7c1.2,0.8,2.4,1.5,3.7,2.1c2.3,1.1,3.9,3.2,4.4,5.7c0.6,2.2,0.4,4.6-0.5,6.8
	c-1.2,2.9-3.9,4.8-7,5.1c-1.1,0.1-2.3,0.1-3.4,0c-0.1,0-0.1,0.1-0.1,0.1c-2.9,3.3-7.1,5-11.5,4.7c-2.7-0.2-5.3-0.5-8-0.6
	c-7.6-0.3-15.1,0.7-22.3,3.1c-5.9,1.9-11.7,4.1-17.3,6.8c-6.1,2.8-12,6.1-17.9,9.3c-5.9,3.2-11.9,6-18.1,8.6
	c-4.2,1.8-8.6,3.2-13.1,4.1c-2.3,0.5-4.7,0.7-7,0.5c-0.9-0.1-1.9-0.4-2.7-0.7c-1.4-0.5-2.5-1.8-2.9-3.3c0-0.2-0.1-0.4-0.2-0.5
	c-1.3,0-2.6,0-3.9,0c-2.5,0-5-0.5-7.3-1.3c-0.5-0.2-1-0.4-1.5-0.6c-3.3-1.6-4.7-4.4-4.9-7.8c-0.2-2.4,1.3-4.7,3.6-5.4
	c1-0.4,2.1-0.6,3.2-0.5c0.6,0,1.2,0.3,1.5,0.8l-0.7,0.3c-1.4,0.3-2.2,1.7-1.9,3.1c0.1,0.3,0.2,0.7,0.4,0.9c0.6,1,1.5,1.8,2.6,2.3
	c1.8,0.8,3.7,1.4,5.6,1.6c4.2,0.5,8.5,0.3,12.6-0.5c8.1-1.5,16.1-4,23.6-7.6c3.4-1.5,6.8-3.2,10.1-4.9c6.9-3.6,14.1-6.8,21.4-9.4
	c5.9-2.1,11.9-3.7,18.1-4.6c6.9-1,13.9-0.8,20.7,0.6c2.6,0.5,5.2,1.1,7.9,1.5c2.2,0.5,4.5,0.2,6.5-0.8c0.3-0.2,0.6-0.4,1-0.6
	l-0.9-0.7c-1.6-1.3-2.5-3.4-2.3-5.4c0.1-1.5,1-2.8,2.4-3.3c1.4-0.6,3.1-0.2,4.1,1c1.5,1.5,2,3.6,1.3,5.6c-0.1,0.3-0.2,0.5-0.3,0.8
	c0,0.1,0,0.1,0,0.2c1,0.1,2-0.2,2.7-0.9c1.2-1.1,1.8-2.8,1.5-4.4c-0.1-1.2-0.7-2.2-1.6-2.9c-1.5-1.1-3.1-2.1-4.6-3.1
	c-0.2-0.1-0.4-0.1-0.6-0.1c-0.8,0.2-1.4,0.6-1.9,1.2c-0.2,0.2-0.3,0.5-0.5,0.7c-1-1.4-0.6-3.4,0.8-4.3c0.2-0.1,0.3-0.2,0.5-0.3
	c-0.5-0.2-0.5-0.2-1.4,0c-0.8-0.8-1.3-1.9-1.5-3c-0.6-2.9,0.3-5.8,2.4-7.9c2.3-2.2,5.7-2.8,8.6-1.5c1.7,0.7,2.7,2.4,2.5,4.2
	c-0.2,1.8-1.8,3.2-3.7,3c-0.3,0-0.5-0.1-0.8-0.2C207.2,32,206.6,31.1,206.8,30.2z M90.8,85.3v0.2c1.2-0.1,2.3-0.2,3.5-0.4
	c4.2-0.7,8.3-1.9,12.3-3.4c7.2-2.7,14.2-5.9,21-9.5c5.4-2.8,10.8-5.4,16.4-7.8c8.5-3.5,17.1-6.4,26.3-7.5c4.4-0.5,8.8-0.6,13.2-0.2
	c2.2,0.2,4.5,0.4,6.7,0.6c0.9,0.1,1.8,0,2.7,0c-2.8-0.6-5.6-1.1-8.4-1.5c-5.3-0.8-10.7-0.9-16.1-0.3c-4.9,0.6-9.7,1.6-14.4,3.1
	c-8.3,2.6-16.4,6-24.2,10.2c-4.9,2.5-9.8,5.1-14.7,7.6c-5.7,2.8-11.6,5.1-17.6,7C95.1,84.1,92.9,84.7,90.8,85.3L90.8,85.3z
	 M203.8,51c0.3-0.5,0.5-1.1,0.7-1.6c0.3-1.1-0.1-2.4-1.2-3c-0.6-0.4-1.5-0.3-1.9,0.4c-0.2,0.3-0.3,0.6-0.2,0.9c0,0.3,0,0.6,0.1,0.9
	C201.8,49.7,202.6,50.6,203.8,51L203.8,51z"/>
<path class="st0" d="M106.5,13.9c-0.5,0-1-0.2-1.4-0.6c-0.8-0.9-1.1-2.2-0.6-3.3c0.5-1.6,1.7-2.9,3.3-3.5c4.3-1.8,11,0.7,11.9,6.7
	c0.6,3.7-0.7,7.5-3.3,10.1c-2,2-4.6,3.4-7.4,3.9c-3,0.6-6.1,0.7-9.2,0.3c-4.5-0.6-8.9-1.8-13.1-3.4C81.1,22,75.3,20.3,69.5,19
	c-3.9-0.9-8-1.4-12-1.4c-2.3,0-4.6,0.4-6.9,1.1c-4.8,1.7-8.1,6.1-8.3,11.2c-0.1,2.7,0.8,5.3,2.5,7.4c0.6,0.6,1.2,1.2,1.8,1.7
	c-0.5,0.2-1.1,0.3-1.6,0.2c-5.3-0.8-10.2-4-11.4-10.4c-0.7-3.9,0.1-7.9,2.2-11.3c2.6-4.5,6.9-7.8,11.8-9.3c3.7-1.1,7.6-1.5,11.5-1.2
	c7.8,0.6,15.5,2.4,22.8,5.3c4.6,1.7,9.1,3.5,13.6,5.3c2.5,1,5.2,1.9,7.8,2.5c1.7,0.4,3.6,0.5,5.3,0.1c1.8-0.4,3.4-1.3,4.6-2.6
	c1.5-1.4,2.1-3.6,1.4-5.6c-0.4-1.7-1.7-2.9-3.4-3.1c-1.5-0.2-3.1,0.3-4.1,1.5c-0.5,0.6-0.8,1.3-0.8,2.1L106.5,13.9z M80.5,17.5
	l0-0.1c-0.1-0.1-0.3-0.1-0.4-0.2c-5.3-2-10.7-3.6-16.3-4.7c-4.1-0.9-8.3-1.1-12.4-0.6c-2.9,0.3-5.7,1.4-8,3.1c-2.3,1.9-4,4.3-5,7.1
	c-1,2.4-1.3,5-0.9,7.5c0.4,2.3,1.6,4.3,3.4,5.8c-0.2-0.3-0.4-0.6-0.6-0.9c-1.4-2.2-1.9-4.9-1.4-7.5c0.5-3.2,1.8-6.1,3.9-8.6
	c2.2-2.4,5.1-4,8.3-4.6c3.8-0.7,7.7-0.8,11.5-0.3c4.3,0.5,8.5,1.3,12.6,2.5C76.9,16.5,78.7,17,80.5,17.5L80.5,17.5z"/>
<path class="st0" d="M58.9,46.2c0.4-0.1,0.6-0.2,0.9-0.3c2.6-1.2,5.4-1.7,8.3-1.5c2.5,0,4.9,1.1,6.5,3c1.2,1.5,2,3.2,2.2,5.1
	c0.3,2.2-0.1,4.4-1.1,6.3c-0.6,1.2-1.5,2.2-2.6,2.9c-0.3,0.2-0.7,0.3-1,0.5c-0.2-0.5-0.1-1.1,0.2-1.5c0.5-1,0.5-2.2,0.1-3.2
	c-0.7-2.1-2.1-3.9-4.1-5c-2.7-1.6-5.9-1.9-8.9-1.1l-0.4,0.1l-0.3,0.1c0,0.3,0,0.6,0,1c0,4.9,0.1,9.8,0.5,14.6c0.2,3,0.6,6.1,1.3,9.1
	c0.3,1.6,0.9,3,1.8,4.3c-3.8,2.2-6.4,6-7.1,10.3c-1.3-4.4-3.4-8.1-7.6-10.3c1.5-2.2,2-4.6,2.4-7.1c0.7-4.5,1.1-9.1,1.2-13.6
	c0-0.3,0-0.6-0.1-0.9c-0.6-1.8-1.5-3.5-2.6-5.1c-1.2-1.6-2.9-2.8-4.9-3.2c-1.5-0.3-3-0.1-4.4,0.3l-0.4,0.1c0,0,0,0-0.1-0.1
	c0.2-0.2,0.3-0.4,0.5-0.5c1.3-1.3,2.9-2.3,4.5-3c2.3-1.1,5-0.9,7.1,0.5l0.3,0.2c0,0,0.1,0,0.2,0c0-0.1,0-0.2,0-0.3
	c-0.1-5.2-0.7-10.4-1.8-15.4c-0.4-1.7-1-3.4-1.9-5c0.7-0.1,1.4-0.2,2-0.4c3.1-0.7,5.9-2.1,8.2-4.2c1.3-1.1,2.6-2.3,3.8-3.5
	c0.2-0.2,0.3-0.4,0.6-0.5C60.5,27.9,59.5,37,58.9,46.2z M58.4,27.2c-1.6,4.2-3.4,14.7-3.4,24.3c0,8,0.9,15.9,2.8,23.7
	C55.8,59.3,56,43.1,58.4,27.2L58.4,27.2z M74.8,57.8c0.6-1.9,0.8-3.9,0.5-5.8c-0.3-2-1.5-3.8-3.2-4.9c-1.8-1.2-4-1.7-6.1-1.5
	c-0.8,0-1.5,0.2-2.3,0.3c0.1,0.1,0.1,0.2,0.1,0.2H65c2.5,0,4.9,0.7,7,2c1.6,1,2.6,2.6,2.8,4.5C75,54.3,75,56.1,74.8,57.8L74.8,57.8z
	"/>
<path class="st0" d="M122.6,20c0.2-0.4,0.2-0.5,0.3-0.6c0.6-0.6,1.3-0.9,2.1-1.1c8.1-0.9,15.7-3.5,23.3-6.2
	c6.3-2.2,12.5-4.5,18.7-6.7c5.2-1.9,10.5-3.3,15.9-4.4c3.6-0.7,7.2-1.1,10.9-1c3.8,0,7.6,0.8,11.2,2.2c2,0.8,3.8,1.9,5.5,3.4
	c0.2,0.1,0.3,0.3,0.5,0.4c1.2-1.6,1.9-3.4,2-5.4c1.1,0.7,2.1,4,1.8,6.1s-1.2,3.6-3.3,5.6c1,0.2,2,0,2.9-0.5c0.8,2.7,0.3,5.7-1.5,7.9
	c-2.1,2.6-5.5,3.7-8.8,2.8c-2.9-0.7-5.8-3.7-6.3-6.4c0.2,0.2,0.4,0.3,0.6,0.5c0.7,0.5,1.4,1.1,2.2,1.6c0.5,0.3,1,0.5,1.5,0.6
	c1.6,0.5,3.3-0.4,3.8-1.9c0.5-1.2,0.5-2.5,0.2-3.7c-0.7-3.2-2.9-5.8-5.8-7.1c-1.9-0.9-3.9-1.4-6-1.6c-3.7-0.3-7.4,0-11,0.7
	c-6.8,1.3-13.5,3.1-20.1,5.3c-6.3,1.9-12.6,3.9-19,5.8c-4.3,1.3-8.8,2.3-13.3,3c-2.4,0.4-4.9,0.5-7.3,0.7
	C123.4,20,123.1,20,122.6,20z"/>
<path class="st0" d="M128.1,59.5c-0.8,1.1-1.6,2.2-2.3,3.4c-0.6,1.2-1.1,2.3-1.5,3.5c-0.4-0.7-0.8-1.5-1.4-2.3
	c-0.6-0.7-1.5-1.2-2.4-1.4c1.3-2.9,1.4-6,1.7-9.1c0.1-0.9,0.1-1.8,0.1-2.7c0.1-1.4-0.9-2.6-2.3-2.7c-0.4,0-0.7,0-1,0.1l-0.5,0.2
	c1-1.8,2.5-2.5,4.7-2.1c-0.1-0.1-0.2-0.3-0.4-0.4c-0.3-0.2-0.5-0.6-0.5-0.9c-0.1-2.6-0.6-5.1-1.3-7.6c-0.6-2-1.6-3.8-2.8-5.5
	l9.4-3.9v1.3l0.6-0.6c1-1.1,2.2-2,3.7-2.3c1.9-0.6,3.8,0.5,4.4,2.3c0,0.1,0,0.1,0,0.2c0.5,1.7,0.5,3.5,0.1,5.2c-0.6,3-2,5.9-4,8.2
	l-0.8,0.9l1-0.1c1.4-0.2,2.2,0.4,2.3,1.8s0.1,3,0.1,4.4c0,0.8,0.1,1.5,0.3,2.2c0.2,0.9,0.6,1.2,1.2,1.1c0.7-0.1,1.3-0.7,1.3-1.4
	c0-0.3,0-0.7,0-1c0.4,0,0.5,0.2,0.6,0.5c0.6,2.5-0.9,4.9-3.4,5.5c-0.1,0-0.3,0.1-0.4,0.1c-1.1,0.2-2.1-0.4-2.5-1.4
	c-0.3-0.7-0.5-1.5-0.6-2.3c-0.1-1.4,0-2.8,0.1-4.1c0-0.4,0.1-0.9,0.1-1.3c0.1-1.9-1.6-2.3-2.8-1.7c-0.8,0.4-1.6,0.9-2.4,1.5
	c-0.2,0.1-0.3,0.3-0.3,0.5c0,3.2,0.3,6.5,0.9,9.7C127.2,58.1,127.5,58.9,128.1,59.5z M126.2,46.4c0.4-0.2,0.7-0.4,1-0.6
	c4.1-3.1,5.5-7.3,5.1-12.3c-0.1-0.7-0.3-1.4-0.6-2c-0.8-1.1-2.3-1.5-3.4-0.7c-0.6,0.4-1,1-1.1,1.7c-0.3,3.6-0.6,7.1-0.9,10.7
	C126.1,44.2,126.2,45.2,126.2,46.4L126.2,46.4z"/>
<path class="st0" d="M111,55l-1.4,1.3c-0.5,0.4-0.9,0.9-1.4,1.3l-2.3-1.5c-0.1,0.1-0.2,0.2-0.2,0.3c-0.4,2.5-0.4,5,0,7.5
	c0.1,0.5,0.3,1,0.5,1.4c0.4,0.9,0.8,1.3,2.2,1.9l-10.1,4l-0.1-0.1c0.1-0.2,0.3-0.4,0.4-0.5c1.2-1.4,2-3.1,2.4-4.9
	c0.6-2.7,1.1-5.4,1.7-8.1c0.2-0.9,0.3-1.8,0.5-2.8c-1.1-0.5-2.3-0.6-3.5-0.3c-1.5,0.6-2.3,2.2-2,3.8c0.1,0.7,0.8,1.3,1.5,1.3h0.9
	c-0.5,1-1.8,1.5-2.9,1.2c-1.7-0.5-2.7-2.1-2.5-3.9c0.3-3,3.1-5.2,6.1-4.9c0.2,0,0.3,0,0.5,0.1c1,0.2,1.9,0.5,3.1,0.8
	c-0.7-0.6-0.5-1.3-0.4-2c0.8-4.6,1.6-9.2,2.4-13.8c0-0.6,0.4-1,1-1.2c2.6-0.9,5.1-1.9,7.7-2.8l0.9-0.3c-0.4,0.7-0.7,1.3-1,1.8
	c-0.9,1.4-1.3,3.1-1.2,4.8c0.2,2.7,0.4,5.4,0.5,8.1c0,0.6-0.1,1.2-0.2,1.8l2.4-2.6c-0.2,1.7-0.6,3.3-0.2,4.9l-1.3,0.5
	c0,0.2,0,0.3,0,0.5c0.3,2.4,0.9,4.7,1.7,7c0.5,1.4,1.4,2.7,2.6,3.6l-9.2,3c1.5-3.8,1.3-7.5,1.2-11.3L111,55z M108.3,55.4
	c0.8-0.8,1.4-1.5,2.1-2.3c0.3-0.3,0.5-0.7,0.4-1.2c-0.3-3-0.7-6-1.4-9c-0.1-0.3-0.2-0.6-0.3-1c-1.6,3.8-2.6,7.7-3.1,11.8L108.3,55.4
	z"/>
<path class="st0" d="M173.2,34.1c-0.1-0.6-0.1-1.1-0.2-1.5c-0.2-1.6-1-2.2-2.6-2c-2.4,0.4-4.1,2.4-4.1,4.8c0,2.1,0,4.2,0,6.3
	c0,2.1,0.8,2.9,2.9,2.9c1,0,2.1-0.2,3.1-0.3c1-0.1,1.9-0.7,2.5-1.6c0.4-0.6,0.6-1.2,1-1.8c0.2-0.3,0.4-0.6,0.6-0.6
	c1-0.2,1.9-0.2,3-0.3c0,0.4-0.1,0.7-0.1,1.1c-0.5,1.6-1.3,3.2-2.3,4.6c-0.2,0.4-0.7,0.6-1.2,0.6c-5.3-0.1-10.5,0.4-15.6,1.6l-1,0.2
	c1.5-5.4,1.7-10.7,1.7-16.1s-0.1-10.7-1.5-16l3.6-0.8c3.8-0.8,7.6-1.4,11.5-1.7c0.6-0.1,1.2,0.1,1.6,0.6c1.1,1.5,2.1,3.1,2.8,4.9
	c0.1,0.3,0.2,0.5,0.2,0.8c-1,0.1-1.9,0.2-2.9,0.3c-0.2,0-0.3-0.1-0.5-0.2c-0.1-0.1-0.2-0.2-0.2-0.3c-1-1.7-2.8-2.6-4.7-2.5
	c-1.1,0-2.2,0.1-3.3,0.3c-1,0.1-1.2,0.3-1.2,1.4c0,2.4,0,4.9,0,7.3c0.1,1-0.1,2-0.4,3c-0.2,0.6-0.3,1.1-0.4,1.7l0.2,0.1l0.3-0.5
	c0.3-0.6,0.6-1.2,1-1.8c1.2-1.7,3.3-2.7,5.4-2.4c1,0.1,1.8,0.6,2.2,1.5c0.9,2.1,0.5,4.5-1,6.1C173.5,33.9,173.3,34,173.2,34.1z"/>
<path class="st0" d="M190.5,21.5c0.4,0.1,0.7,0.2,1,0.3c0.9,0.3,1.8-0.1,2.2-1c0.4-0.9,0.1-1.9-0.7-2.4c-1.5-1-3.6-0.7-4.8,0.7
	c-1.3,1.6-1.4,3.9-0.1,5.6c0.7,0.8,1.4,1.4,2.3,2c1.3,0.9,2.6,1.6,4,2.3c2.3,1.2,4,3.3,4.5,5.9c0.7,2.5,0.5,5.2-0.5,7.6
	c-1.3,3-4.1,5.1-7.4,5.4c-2.8,0.5-5.8-0.4-7.8-2.4c-1.7-1.5-2.4-3.9-1.9-6.1c0.4-2.1,2.5-3.5,4.6-3.1c0.4,0.1,0.9,0.2,1.2,0.5
	c0.6,0.3,1,0.9,1.3,1.5c-0.3,0-0.6,0-0.9-0.1c-0.8-0.4-1.8-0.2-2.3,0.5c-0.7,0.7-0.9,1.7-0.5,2.5c0.1,0.3,0.2,0.6,0.4,0.8
	c1.1,1.7,3.1,2.6,5.1,2.4c1.9-0.3,3.4-1.9,3.6-3.9c0.4-2-0.4-4-2-5.1c-1.1-0.8-2.4-1.6-3.5-2.4s-2.1-1.5-3.1-2.3
	c-0.3-0.2-0.6-0.3-1-0.2c-1.1,0.2-2.1,1-2.6,2c-0.5-1-0.6-2.2-0.1-3.3c0.5-1.1,1.5-1.5,2.6-2l-1.4-0.2c-1.1-3.4-0.1-7.1,2.5-9.5
	c2.1-2,5.1-2.7,7.9-1.8c1.9,0.4,3.3,1.9,3.7,3.8c0.4,2-0.8,3.9-2.8,4.3c-0.5,0.1-1.1,0.1-1.7,0c-1-0.1-1.8-1-1.7-2
	C190.5,21.7,190.5,21.6,190.5,21.5z"/>
<path class="st0" d="M98.1,65.7c-0.1,0.5-0.2,0.9-0.3,1.4c-0.7,1.4-1.4,2.9-2.2,4.3c-0.2,0.5-0.7,0.7-1.2,0.7
	c-3,0.3-5.9,0.6-8.8,0.9l-7.2,0.7h-0.5c0.1-0.3,0.1-0.5,0.2-0.7c0.8-2.4,1.3-5,1.5-7.6c0.4-4,0.5-8,0.4-12.1
	c-0.1-3.5-0.6-7-1.5-10.5c-0.2-0.6-0.4-1.2-0.6-2h0.8c5.1,0.2,10.1-0.2,15.1-1.2c0.6-0.2,1.2,0,1.5,0.6c1,1.3,1.7,2.8,2.3,4.3
	c0.1,0.3,0.1,0.5,0.2,0.8l-3.2,0.3c-0.2-0.3-0.4-0.5-0.5-0.8c-0.8-1.4-2.4-2.3-4-2.3c-1.3,0-2.6,0.1-4,0.2c-0.8,0.1-1.1,0.4-1.1,1.2
	s0,1.7,0,2.5c0,1.4,0,2.8,0,4.2c0.1,1.4,0,2.8-0.5,4.2c-0.1,0.4-0.1,0.7,0,1.1c0.2-0.3,0.3-0.7,0.5-1c0.9-1.9,2.7-3.2,4.8-3.5
	c1.8-0.5,3.5,0.6,4,2.3c0.1,0.3,0.1,0.7,0.1,1c0.1,1.2-0.2,2.5-0.8,3.5c-0.2,0.5-0.7,0.9-1.2,1.1c0-0.3-0.1-0.5-0.1-0.8s0-0.7-0.1-1
	c-0.1-1.1-1.1-1.9-2.2-1.8c-0.1,0-0.2,0-0.4,0.1c-2.4,0.4-4.1,2.5-4.1,4.9v6c0,0.3,0,0.6,0,0.8c0,1.2,0.9,2.1,2.1,2.2c0,0,0,0,0,0
	c1.5,0.2,3,0.1,4.5-0.3c0.9-0.2,1.7-0.8,2.1-1.7c0.3-0.5,0.6-1.1,0.9-1.7c0.1-0.2,0.4-0.5,0.6-0.5C95.9,65.8,96.8,65.8,98.1,65.7z"
	/>
<path class="st0" d="M157.5,48.5c-6.1,1.6-12,3.7-17.8,6.1c0.1-0.3,0.1-0.5,0.2-0.7c1.3-3.5,2.1-7.2,2.5-10.9
	c0.2-1.9,0.3-3.8,0.4-5.6c0.1-0.9-0.1-1.1-1-1.4c-0.8-0.2-1.7-0.3-2.5-0.1l-0.5,0.1c0.9-2.1,3.1-3.2,5.3-2.9
	c-0.2-0.2-0.4-0.4-0.7-0.5c-0.5-0.2-0.6-0.6-0.6-1c-0.2-2.1-0.3-4.1-0.5-6.2c-0.1-1.1-0.5-2.2-1.1-3.2l8-3c0,0.1,0,0.3,0,0.4
	c-1.1,2.8-1.8,5.7-2.2,8.7c-0.5,3.4-0.7,6.9-0.6,10.4c0,2,0.4,4,0.9,6c0.2,0.7,0.5,1.5,0.9,2.2c0.3,0.5,0.7,0.9,1.1,1.3
	c0.3-0.3,0.5-0.6,0.7-1c1.1-2.5,1.5-5.3,1.2-8c-0.2-0.8-0.4-1.7-0.7-2.5c1.3-0.5,2.6-0.8,3.9-1.1c0,0.4,0,0.8,0,1.1
	c-0.1,2.5,0.1,5,0.6,7.5C155.4,45.8,156.2,47.4,157.5,48.5z"/>
<path class="st0" d="M9.7,36c-1.3-0.6-2.8-0.9-4.3-0.8c-1.7,0.1-3.1,1.3-3.5,3c-0.2,1.1,0.4,2.3,1.5,2.6c0.6,0.3,1.4,0.2,1.8-0.3
	c0.5-0.5,0.7-1.3,0.4-1.9c-0.1-0.3-0.2-0.6-0.4-0.9c0.8-0.5,1.8-0.2,2.3,0.6c0.1,0.2,0.2,0.4,0.2,0.7c0.2,1.2-0.3,2.4-1.4,3
	c-1.7,1-3.9,0.9-5.3-0.5c-0.5-0.5-0.9-1.1-1-1.8c-0.3-1.5,0-3.1,0.8-4.4c0.8-1.2,2.1-2,3.5-2.1c1.3-0.2,2.6-0.2,3.9,0.1
	c2.1,0.5,4.2,1,6.3,1.5c1,0.2,2.1,0.3,3.1,0.3c1.4,0,2.7-0.6,3.6-1.6c0.2-0.2,0.3-0.5,0.5-0.7c0.5,0.3,0.7,0.9,0.5,1.4
	c-0.4,1.6-1.5,2.8-3,3.4c-1.7,0.6-3.6,0.6-5.3,0l-1.2-0.4v0.9c0,5.5,0,11.1,0,16.6c0,0.6,0.1,1.1,0.2,1.7c0.1,0.9,0.8,1.7,1.7,1.9
	c0.1,0,0.2,0.1,0.4,0.3c-0.5,0.2-1.1,0.2-1.5-0.1c-0.7-0.4-1.3-0.8-1.9-1.3c-0.7-0.7-1.6-1.1-2.5-1.3c0.4-0.7,0.6-1.5,0.6-2.3
	c0-5.5,0-11.1,0-16.6L9.7,36z"/>
<path class="st0" d="M26.1,53.8c-1.5,0.2-3.1,0.2-4.6,0c1-0.6,0.8-1.6,0.8-2.5c0-0.6,0-1.2,0-1.9l-3.7-1.2v3.2c0,1.4,0,1.4,0.7,2.3
	c-1.5,0.2-3,0.2-4.4,0c1-0.5,0.8-1.4,0.8-2.3v-9.3c0.1-0.6-0.1-1.3-0.7-1.6h4c-0.2,0.3-0.3,0.7-0.4,1.1c0,1.7,0,3.4,0,5.2l3.7,1.1
	v-1c0-1.6,0-3.3,0-4.9c0.1-0.5-0.1-1.1-0.5-1.5h4.1c-0.5,0.4-0.7,1-0.6,1.6c0,3.3,0,6.7,0,10C25,52.9,25.4,53.6,26.1,53.8z"/>
<path class="st0" d="M42.8,77.3c2.8-5.9,2.8-12.1,2.2-18.5h-1.2c-8.3,0-16.7,0-25,0c-0.8,0.1-1.6-0.3-2-1c-0.1-0.2-0.3-0.5-0.5-0.7
	c0-0.1,0-0.1,0.1-0.1s0-0.1,0.1-0.1h29.4c0.3,0,0.6,0,0.9,0c0.1,0.4,0.1,0.7,0.2,1c0.3,3.9,0.1,7.9-0.5,11.8c-0.3,2.1-1,4-2,5.9
	c-0.4,0.6-0.8,1.2-1.2,1.8L42.8,77.3z"/>
<path class="st0" d="M37.5,51.6c-0.2,0.8-0.7,1.6-1.3,2.2C36,53.9,35.8,54,35.6,54c-2.8,0-5.6,0-8.4,0c-0.1,0-0.1-0.1-0.2-0.2
	c0.9-0.5,0.8-1.4,0.8-2.2c0-2.8,0-5.6,0-8.4c0-0.4,0-0.8,0-1.2c-0.1-0.5-0.2-0.9-0.4-1.4h2.1c1.9,0,3.8,0,5.7,0
	c0.4,0,0.9,0.2,1.1,0.5c0.5,0.6,0.8,1.2,1.1,1.9c-0.9,0.1-1.6,0.2-2.2-0.6c-0.4-0.5-1-0.8-1.7-0.8c-0.6-0.1-1.3-0.1-1.9-0.1
	c-0.6,0-0.8,0.1-0.8,0.8c0,1.3,0,2.6,0,4c0.2-0.1,0.4-0.2,0.6-0.4c0.6-0.4,1.3-0.7,2-0.6c0.8-0.1,1.5,0.4,1.8,1.1
	c0.3,0.8-0.1,1.8-0.8,2.3c-0.1-0.2-0.1-0.4-0.2-0.6c-0.1-0.6-0.6-1-1.1-0.9c-1.2-0.1-2.2,0.8-2.3,1.9c0,0.1,0,0.2,0,0.2
	c0.1,0.7,0,1.5,0,2.3s0.3,1.1,1,1.2c0.7,0.1,1.4,0.1,2.1,0.1c0.6,0,1.1-0.3,1.4-0.8c0.2-0.5,0.8-0.8,1.4-0.7L37.5,51.6z"/>
<path class="st0" d="M36.6,12.4l-0.9,1.1c-2,2.4-3.5,5.1-4.2,8.1c-1.2,5.3,0.1,10,3.4,14.3c0.2,0.2,0.3,0.5,0.5,0.7c0,0,0,0.1,0,0.1
	H23.3l0.7-1.4h8.3c0.1-0.5-0.2-0.7-0.3-1c-1.7-3-2.4-6.3-2.3-9.7c0.2-2.9,1.2-5.7,2.8-8.1c1-1.5,2.2-2.8,3.6-4
	c0.1-0.1,0.2-0.2,0.4-0.3L36.6,12.4z"/>
</svg>
